<svg width="400" height="104" viewBox="0 0 400 104" fill="none" xmlns="http://www.w3.org/2000/svg">
<g filter="url(#filter0_d_9_389)">
<path d="M28.7587 48.2847L29.665 51.4058C30.5666 54.5109 29.9833 56.7455 27.915 58.1097C30.5472 57.9702 32.3374 59.533 33.2855 62.7981L34.2755 66.2073C35.7534 71.297 33.7715 74.632 28.3296 76.2122L16.6616 79.6004L6.999 46.3249L18.3789 43.0204C23.8208 41.4402 27.2807 43.195 28.7587 48.2847ZM18.9353 49.4191L15.9583 50.2835L18.0637 57.5341L21.0407 56.6696C22.5453 56.2327 23.0977 55.326 22.698 53.9495L21.7917 50.8285C21.392 49.452 20.4399 48.9822 18.9353 49.4191ZM27.0296 67.7907L26.0396 64.3815C25.6399 63.005 24.6878 62.5352 23.1833 62.9721L19.9181 63.9203L22.1072 71.4589L25.3723 70.5107C26.8769 70.0738 27.4293 69.1672 27.0296 67.7907Z" fill="black"/>
<path d="M37.2316 37.8868L44.6067 36.0519L52.9727 69.6768L45.5975 71.5117L37.2316 37.8868Z" fill="black"/>
<path d="M55.9913 33.3373L73.1648 29.7215L74.504 36.082L64.6696 38.1526L66.1839 45.3449L74.6973 43.5525L76.0364 49.913L67.5231 51.7055L69.1301 59.3381L78.9645 57.2675L80.3037 63.6281L63.1302 67.2439L55.9913 33.3373Z" fill="black"/>
<path d="M98.6394 25.2853L105.945 24.1073L111.461 58.3154L104.353 59.4616C97.4767 47.8076 93.4532 40.7583 92.2824 38.3135C93.3927 40.8018 94.4599 45.2216 95.4841 51.5729L96.9487 60.6556L89.643 61.8336L84.1269 27.6255L91.4325 26.4474L97.7712 37.1752C100.471 41.7707 102.354 45.2824 103.42 47.7102C102.149 44.6402 101.017 40.0282 100.024 33.8744L98.6394 25.2853Z" fill="black"/>
<path d="M131.405 21.0207L139.158 20.1659L136.395 55.3305L126.008 56.4757L115.551 22.7687L123.155 21.9303C126.286 32.6853 128.126 39.1895 128.677 41.4427C129.227 43.696 129.856 46.3598 130.564 49.434C130.539 43.4339 130.596 38.9339 130.735 35.9339L131.405 21.0207Z" fill="black"/>
<path d="M149.029 19.3705L166.543 18.2517L166.957 24.7385L156.928 25.3792L157.396 32.7142L166.079 32.1596L166.493 38.6464L157.811 39.201L158.308 46.9851L168.338 46.3445L168.752 52.8313L151.238 53.95L149.029 19.3705Z" fill="black"/>
<path d="M192.39 17.51L199.789 17.3905L200.349 52.036L193.15 52.1523C188.014 39.6336 185.041 32.0806 184.233 29.4933C184.975 32.115 185.398 36.6421 185.502 43.0746L185.651 52.2734L178.252 52.3929L177.692 17.7474L185.091 17.6279L189.828 29.1529C191.841 34.0877 193.202 37.8329 193.91 40.3885C193.091 37.1679 192.632 32.4414 192.531 26.2089L192.39 17.51Z" fill="black"/>
<path d="M224.479 17.9502L231.975 18.2045L231.087 44.3894C230.994 47.1212 230.037 49.2733 228.216 50.8458C226.43 52.3861 223.821 53.0981 220.389 52.9817C216.991 52.8664 214.436 51.9793 212.725 50.3203C211.047 48.6624 210.255 46.451 210.349 43.6859L211.237 17.5009L218.733 17.7552L217.858 43.5404C217.801 45.2061 218.723 46.0712 220.621 46.1356C222.554 46.2012 223.548 45.4011 223.605 43.7354L224.479 17.9502Z" fill="black"/>
<path d="M243.107 18.8735L260.601 20.2749L260.082 26.7542L250.064 25.9517L249.477 33.2782L258.15 33.9729L257.631 40.4522L248.958 39.7574L248.336 47.5325L258.353 48.3351L257.834 54.8143L240.34 53.4129L243.107 18.8735Z" fill="black"/>
<path d="M285.585 31.3716C285.976 28.7337 287.185 26.8236 289.213 25.6411C291.28 24.4306 294.159 24.0987 297.852 24.6454C300.292 25.0066 302.336 25.5449 303.982 26.2603L302.972 33.086C301.208 32.2521 299.419 31.7009 297.606 31.4325C295.825 31.1689 294.639 31.2124 294.048 31.563C293.462 31.8805 293.111 32.435 292.993 33.2264L290.534 49.8453C290.299 51.4281 291.419 52.4025 293.892 52.7686C296.398 53.1395 298.495 53.1973 300.184 52.9418L299.196 59.6191C297.342 59.8501 295.146 59.7777 292.607 59.4019C288.913 58.8552 286.267 57.7222 284.669 56.0029C283.103 54.2885 282.515 52.1123 282.906 49.4744L285.585 31.3716Z" fill="black"/>
<path d="M328.863 30.3683L336.321 31.8319L329.648 65.8333L322.19 64.3697L324.828 50.9262L318.057 49.5974L315.419 63.0409L307.961 61.5773L314.634 27.5759L322.092 29.0395L319.348 43.0228L326.119 44.3516L328.863 30.3683Z" fill="black"/>
<path d="M347.647 34.3874L364.688 38.5834L363.133 44.8949L353.375 42.4921L351.618 49.6289L360.065 51.709L358.511 58.0205L350.064 55.9404L348.199 63.5142L357.957 65.917L356.403 72.2285L339.362 68.0325L347.647 34.3874Z" fill="black"/>
<path d="M374.315 41.1553L392.405 46.4557L390.703 52.2616L373.699 70.4646L384.639 73.6701L382.853 79.7639L364.38 74.3511L366.166 68.2573L382.798 50.2578L372.53 47.2491L374.315 41.1553Z" fill="black"/>
</g>
<defs>
<filter id="filter0_d_9_389" x="2.99899" y="17.3905" width="393.598" height="81.3734" filterUnits="userSpaceOnUse" color-interpolation-filters="sRGB">
<feFlood flood-opacity="0" result="BackgroundImageFix"/>
<feColorMatrix in="SourceAlpha" type="matrix" values="0 0 0 0 0 0 0 0 0 0 0 0 0 0 0 0 0 0 127 0" result="hardAlpha"/>
<feOffset dy="15"/>
<feGaussianBlur stdDeviation="2"/>
<feComposite in2="hardAlpha" operator="out"/>
<feColorMatrix type="matrix" values="0 0 0 0 0 0 0 0 0 0 0 0 0 0 0 0 0 0 0.33 0"/>
<feBlend mode="normal" in2="BackgroundImageFix" result="effect1_dropShadow_9_389"/>
<feBlend mode="normal" in="SourceGraphic" in2="effect1_dropShadow_9_389" result="shape"/>
</filter>
</defs>
</svg>
